<svg xmlns="http://www.w3.org/2000/svg" viewBox="0 0 24 24" fill="currentColor">
  <path d="M12 2a10 10 0 0 0-8.6 15.1L2 22l5.1-1.3A10 10 0 1 0 12 2zm0 18.2a8.2 8.2 0 0 1-4.2-1.2l-.3-.2-3 .8.8-2.9-.2-.3a8.2 8.2 0 1 1 6.9 3.8zm4.5-6.1c-.2-.1-1.2-.6-1.4-.7-.2-.1-.3-.1-.5.1s-.5.7-.6.8c-.1.1-.2.1-.4 0-.2-.1-.9-.3-1.7-1.1-.6-.5-1-1.2-1.1-1.4-.1-.2 0-.3.1-.4.1-.1.2-.2.3-.4.1-.1.1-.2.2-.3.1-.1.1-.3 0-.4-.1-.1-.5-1.2-.7-1.6-.2-.4-.4-.4-.5-.4h-.4c-.1 0-.4.1-.6.3s-.8.8-.8 2 .8 2.3.9 2.5c.1.2 1.6 2.4 3.9 3.4.5.2 1 .4 1.3.5.6.2 1.2.2 1.6.1.5-.1 1.2-.5 1.4-.9.2-.4.2-.8.1-.9-.1-.1-.2-.1-.4-.2z"/>
</svg>
